<svg xmlns="http://www.w3.org/2000/svg" viewBox="0 0 64 64">
  <rect width="64" height="64" rx="12" fill="hsl(30,100%,97%)"/>
  <g>
    <path d="M32 58C32 58 35 42 29 20" stroke="hsl(0,0%,11%)" stroke-width="2" stroke-linecap="round"/>
    <path d="M32 48C26 45 20 51 32 54" fill="hsl(30,100%,97%)" stroke="hsl(0,0%,11%)" stroke-width="1.5" stroke-linecap="round"/>
    <path d="M32 42C38 39 44 45 32 48" fill="hsl(30,100%,97%)" stroke="hsl(0,0%,11%)" stroke-width="1.5" stroke-linecap="round"/>
    <path d="M29 30C20 24 14 12 23 6C26 4 29 10 32 13C35 10 38 4 41 6C50 12 44 24 35 30C32 32 29 30 29 30Z" fill="hsl(30,100%,97%)" stroke="hsl(0,0%,11%)" stroke-width="2" stroke-linecap="round" stroke-linejoin="round"/>
    <path d="M32 13V23" stroke="hsl(25,100%,58%)" stroke-width="2" stroke-linecap="round"/>
  </g>
</svg>
